# 3ds Max Wavefront OBJ Exporter v0.94b - (c)2007 guruware
# File Created: 17.10.2019 07:59:19

#
# object Box01
#

v  -0.5000 -0.5000 0.5000
v  -0.5000 -0.5000 0.3000
v  -0.3000 -0.5000 0.3000
v  -0.3000 -0.5000 0.5000
v  -0.1000 -0.5000 0.3000
v  -0.1000 -0.5000 0.5000
v  0.1000 -0.5000 0.3000
v  0.1000 -0.5000 0.5000
v  0.3000 -0.5000 0.3000
v  0.3000 -0.5000 0.5000
v  0.5000 -0.5000 0.3000
v  0.5000 -0.5000 0.5000
v  -0.5000 -0.5000 0.1000
v  -0.3000 -0.5000 0.1000
v  -0.1000 -0.5000 0.1000
v  0.1000 -0.5000 0.1000
v  0.3000 -0.5000 0.1000
v  0.5000 -0.5000 0.1000
v  -0.5000 -0.5000 -0.1000
v  -0.3000 -0.5000 -0.1000
v  -0.1000 -0.5000 -0.1000
v  0.1000 -0.5000 -0.1000
v  0.3000 -0.5000 -0.1000
v  0.5000 -0.5000 -0.1000
v  -0.5000 -0.5000 -0.3000
v  -0.3000 -0.5000 -0.3000
v  -0.1000 -0.5000 -0.3000
v  0.1000 -0.5000 -0.3000
v  0.3000 -0.5000 -0.3000
v  0.5000 -0.5000 -0.3000
v  -0.5000 -0.5000 -0.5000
v  -0.3000 -0.5000 -0.5000
v  -0.1000 -0.5000 -0.5000
v  0.1000 -0.5000 -0.5000
v  0.3000 -0.5000 -0.5000
v  0.5000 -0.5000 -0.5000
v  -0.5000 0.5000 0.5000
v  -0.3000 0.5000 0.5000
v  -0.3000 0.5000 0.3000
v  -0.5000 0.5000 0.3000
v  -0.1000 0.5000 0.5000
v  -0.1000 0.5000 0.3000
v  0.1000 0.5000 0.5000
v  0.1000 0.5000 0.3000
v  0.3000 0.5000 0.5000
v  0.3000 0.5000 0.3000
v  0.5000 0.5000 0.5000
v  0.5000 0.5000 0.3000
v  -0.3000 0.5000 0.1000
v  -0.5000 0.5000 0.1000
v  -0.1000 0.5000 0.1000
v  0.1000 0.5000 0.1000
v  0.3000 0.5000 0.1000
v  0.5000 0.5000 0.1000
v  -0.3000 0.5000 -0.1000
v  -0.5000 0.5000 -0.1000
v  -0.1000 0.5000 -0.1000
v  0.1000 0.5000 -0.1000
v  0.3000 0.5000 -0.1000
v  0.5000 0.5000 -0.1000
v  -0.3000 0.5000 -0.3000
v  -0.5000 0.5000 -0.3000
v  -0.1000 0.5000 -0.3000
v  0.1000 0.5000 -0.3000
v  0.3000 0.5000 -0.3000
v  0.5000 0.5000 -0.3000
v  -0.3000 0.5000 -0.5000
v  -0.5000 0.5000 -0.5000
v  -0.1000 0.5000 -0.5000
v  0.1000 0.5000 -0.5000
v  0.3000 0.5000 -0.5000
v  0.5000 0.5000 -0.5000
v  -0.3000 -0.3000 0.5000
v  -0.5000 -0.3000 0.5000
v  -0.1000 -0.3000 0.5000
v  0.1000 -0.3000 0.5000
v  0.3000 -0.3000 0.5000
v  0.5000 -0.3000 0.5000
v  -0.3000 -0.1000 0.5000
v  -0.5000 -0.1000 0.5000
v  -0.1000 -0.1000 0.5000
v  0.1000 -0.1000 0.5000
v  0.3000 -0.1000 0.5000
v  0.5000 -0.1000 0.5000
v  -0.3000 0.1000 0.5000
v  -0.5000 0.1000 0.5000
v  -0.1000 0.1000 0.5000
v  0.1000 0.1000 0.5000
v  0.3000 0.1000 0.5000
v  0.5000 0.1000 0.5000
v  -0.3000 0.3000 0.5000
v  -0.5000 0.3000 0.5000
v  -0.1000 0.3000 0.5000
v  0.1000 0.3000 0.5000
v  0.3000 0.3000 0.5000
v  0.5000 0.3000 0.5000
v  0.5000 -0.3000 0.3000
v  0.5000 -0.3000 0.1000
v  0.5000 -0.3000 -0.1000
v  0.5000 -0.3000 -0.3000
v  0.5000 -0.3000 -0.5000
v  0.5000 -0.1000 0.3000
v  0.5000 -0.1000 0.1000
v  0.5000 -0.1000 -0.1000
v  0.5000 -0.1000 -0.3000
v  0.5000 -0.1000 -0.5000
v  0.5000 0.1000 0.3000
v  0.5000 0.1000 0.1000
v  0.5000 0.1000 -0.1000
v  0.5000 0.1000 -0.3000
v  0.5000 0.1000 -0.5000
v  0.5000 0.3000 0.3000
v  0.5000 0.3000 0.1000
v  0.5000 0.3000 -0.1000
v  0.5000 0.3000 -0.3000
v  0.5000 0.3000 -0.5000
v  0.3000 -0.3000 -0.5000
v  0.1000 -0.3000 -0.5000
v  -0.1000 -0.3000 -0.5000
v  -0.3000 -0.3000 -0.5000
v  -0.5000 -0.3000 -0.5000
v  0.3000 -0.1000 -0.5000
v  0.1000 -0.1000 -0.5000
v  -0.1000 -0.1000 -0.5000
v  -0.3000 -0.1000 -0.5000
v  -0.5000 -0.1000 -0.5000
v  0.3000 0.1000 -0.5000
v  0.1000 0.1000 -0.5000
v  -0.1000 0.1000 -0.5000
v  -0.3000 0.1000 -0.5000
v  -0.5000 0.1000 -0.5000
v  0.3000 0.3000 -0.5000
v  0.1000 0.3000 -0.5000
v  -0.1000 0.3000 -0.5000
v  -0.3000 0.3000 -0.5000
v  -0.5000 0.3000 -0.5000
v  -0.5000 -0.3000 -0.3000
v  -0.5000 -0.3000 -0.1000
v  -0.5000 -0.3000 0.1000
v  -0.5000 -0.3000 0.3000
v  -0.5000 -0.1000 -0.3000
v  -0.5000 -0.1000 -0.1000
v  -0.5000 -0.1000 0.1000
v  -0.5000 -0.1000 0.3000
v  -0.5000 0.1000 -0.3000
v  -0.5000 0.1000 -0.1000
v  -0.5000 0.1000 0.1000
v  -0.5000 0.1000 0.3000
v  -0.5000 0.3000 -0.3000
v  -0.5000 0.3000 -0.1000
v  -0.5000 0.3000 0.1000
v  -0.5000 0.3000 0.3000
# 152 vertices

vn 0.0000 -1.0000 -0.0000
vn 0.0000 1.0000 -0.0000
vn 0.0000 0.0000 1.0000
vn 1.0000 0.0000 -0.0000
vn 0.0000 0.0000 -1.0000
vn -1.0000 0.0000 -0.0000
# 6 vertex normals

vt 1.0000 0.0000 0.0000
vt 1.0000 0.2000 0.0000
vt 0.8000 0.2000 0.0000
vt 0.8000 0.0000 0.0000
vt 0.6000 0.2000 0.0000
vt 0.6000 0.0000 0.0000
vt 0.4000 0.2000 0.0000
vt 0.4000 0.0000 0.0000
vt 0.2000 0.2000 0.0000
vt 0.2000 0.0000 0.0000
vt 0.0000 0.2000 0.0000
vt 0.0000 0.0000 0.0000
vt 1.0000 0.4000 0.0000
vt 0.8000 0.4000 0.0000
vt 0.6000 0.4000 0.0000
vt 0.4000 0.4000 0.0000
vt 0.2000 0.4000 0.0000
vt 0.0000 0.4000 0.0000
vt 1.0000 0.6000 0.0000
vt 0.8000 0.6000 0.0000
vt 0.6000 0.6000 0.0000
vt 0.4000 0.6000 0.0000
vt 0.2000 0.6000 0.0000
vt 0.0000 0.6000 0.0000
vt 1.0000 0.8000 0.0000
vt 0.8000 0.8000 0.0000
vt 0.6000 0.8000 0.0000
vt 0.4000 0.8000 0.0000
vt 0.2000 0.8000 0.0000
vt 0.0000 0.8000 0.0000
vt 1.0000 1.0000 0.0000
vt 0.8000 1.0000 0.0000
vt 0.6000 1.0000 0.0000
vt 0.4000 1.0000 0.0000
vt 0.2000 1.0000 0.0000
vt 0.0000 1.0000 0.0000
# 36 texture coords

g Box01
f 1/1/1 2/2/1 3/3/1 
f 3/3/1 4/4/1 1/1/1 
f 4/4/1 3/3/1 5/5/1 
f 5/5/1 6/6/1 4/4/1 
f 6/6/1 5/5/1 7/7/1 
f 7/7/1 8/8/1 6/6/1 
f 8/8/1 7/7/1 9/9/1 
f 9/9/1 10/10/1 8/8/1 
f 10/10/1 9/9/1 11/11/1 
f 11/11/1 12/12/1 10/10/1 
f 2/2/1 13/13/1 14/14/1 
f 14/14/1 3/3/1 2/2/1 
f 3/3/1 14/14/1 15/15/1 
f 15/15/1 5/5/1 3/3/1 
f 5/5/1 15/15/1 16/16/1 
f 16/16/1 7/7/1 5/5/1 
f 7/7/1 16/16/1 17/17/1 
f 17/17/1 9/9/1 7/7/1 
f 9/9/1 17/17/1 18/18/1 
f 18/18/1 11/11/1 9/9/1 
f 13/13/1 19/19/1 20/20/1 
f 20/20/1 14/14/1 13/13/1 
f 14/14/1 20/20/1 21/21/1 
f 21/21/1 15/15/1 14/14/1 
f 15/15/1 21/21/1 22/22/1 
f 22/22/1 16/16/1 15/15/1 
f 16/16/1 22/22/1 23/23/1 
f 23/23/1 17/17/1 16/16/1 
f 17/17/1 23/23/1 24/24/1 
f 24/24/1 18/18/1 17/17/1 
f 19/19/1 25/25/1 26/26/1 
f 26/26/1 20/20/1 19/19/1 
f 20/20/1 26/26/1 27/27/1 
f 27/27/1 21/21/1 20/20/1 
f 21/21/1 27/27/1 28/28/1 
f 28/28/1 22/22/1 21/21/1 
f 22/22/1 28/28/1 29/29/1 
f 29/29/1 23/23/1 22/22/1 
f 23/23/1 29/29/1 30/30/1 
f 30/30/1 24/24/1 23/23/1 
f 25/25/1 31/31/1 32/32/1 
f 32/32/1 26/26/1 25/25/1 
f 26/26/1 32/32/1 33/33/1 
f 33/33/1 27/27/1 26/26/1 
f 27/27/1 33/33/1 34/34/1 
f 34/34/1 28/28/1 27/27/1 
f 28/28/1 34/34/1 35/35/1 
f 35/35/1 29/29/1 28/28/1 
f 29/29/1 35/35/1 36/36/1 
f 36/36/1 30/30/1 29/29/1 
f 37/12/2 38/10/2 39/9/2 
f 39/9/2 40/11/2 37/12/2 
f 38/10/2 41/8/2 42/7/2 
f 42/7/2 39/9/2 38/10/2 
f 41/8/2 43/6/2 44/5/2 
f 44/5/2 42/7/2 41/8/2 
f 43/6/2 45/4/2 46/3/2 
f 46/3/2 44/5/2 43/6/2 
f 45/4/2 47/1/2 48/2/2 
f 48/2/2 46/3/2 45/4/2 
f 40/11/2 39/9/2 49/17/2 
f 49/17/2 50/18/2 40/11/2 
f 39/9/2 42/7/2 51/16/2 
f 51/16/2 49/17/2 39/9/2 
f 42/7/2 44/5/2 52/15/2 
f 52/15/2 51/16/2 42/7/2 
f 44/5/2 46/3/2 53/14/2 
f 53/14/2 52/15/2 44/5/2 
f 46/3/2 48/2/2 54/13/2 
f 54/13/2 53/14/2 46/3/2 
f 50/18/2 49/17/2 55/23/2 
f 55/23/2 56/24/2 50/18/2 
f 49/17/2 51/16/2 57/22/2 
f 57/22/2 55/23/2 49/17/2 
f 51/16/2 52/15/2 58/21/2 
f 58/21/2 57/22/2 51/16/2 
f 52/15/2 53/14/2 59/20/2 
f 59/20/2 58/21/2 52/15/2 
f 53/14/2 54/13/2 60/19/2 
f 60/19/2 59/20/2 53/14/2 
f 56/24/2 55/23/2 61/29/2 
f 61/29/2 62/30/2 56/24/2 
f 55/23/2 57/22/2 63/28/2 
f 63/28/2 61/29/2 55/23/2 
f 57/22/2 58/21/2 64/27/2 
f 64/27/2 63/28/2 57/22/2 
f 58/21/2 59/20/2 65/26/2 
f 65/26/2 64/27/2 58/21/2 
f 59/20/2 60/19/2 66/25/2 
f 66/25/2 65/26/2 59/20/2 
f 62/30/2 61/29/2 67/35/2 
f 67/35/2 68/36/2 62/30/2 
f 61/29/2 63/28/2 69/34/2 
f 69/34/2 67/35/2 61/29/2 
f 63/28/2 64/27/2 70/33/2 
f 70/33/2 69/34/2 63/28/2 
f 64/27/2 65/26/2 71/32/2 
f 71/32/2 70/33/2 64/27/2 
f 65/26/2 66/25/2 72/31/2 
f 72/31/2 71/32/2 65/26/2 
f 1/12/3 4/10/3 73/9/3 
f 73/9/3 74/11/3 1/12/3 
f 4/10/3 6/8/3 75/7/3 
f 75/7/3 73/9/3 4/10/3 
f 6/8/3 8/6/3 76/5/3 
f 76/5/3 75/7/3 6/8/3 
f 8/6/3 10/4/3 77/3/3 
f 77/3/3 76/5/3 8/6/3 
f 10/4/3 12/1/3 78/2/3 
f 78/2/3 77/3/3 10/4/3 
f 74/11/3 73/9/3 79/17/3 
f 79/17/3 80/18/3 74/11/3 
f 73/9/3 75/7/3 81/16/3 
f 81/16/3 79/17/3 73/9/3 
f 75/7/3 76/5/3 82/15/3 
f 82/15/3 81/16/3 75/7/3 
f 76/5/3 77/3/3 83/14/3 
f 83/14/3 82/15/3 76/5/3 
f 77/3/3 78/2/3 84/13/3 
f 84/13/3 83/14/3 77/3/3 
f 80/18/3 79/17/3 85/23/3 
f 85/23/3 86/24/3 80/18/3 
f 79/17/3 81/16/3 87/22/3 
f 87/22/3 85/23/3 79/17/3 
f 81/16/3 82/15/3 88/21/3 
f 88/21/3 87/22/3 81/16/3 
f 82/15/3 83/14/3 89/20/3 
f 89/20/3 88/21/3 82/15/3 
f 83/14/3 84/13/3 90/19/3 
f 90/19/3 89/20/3 83/14/3 
f 86/24/3 85/23/3 91/29/3 
f 91/29/3 92/30/3 86/24/3 
f 85/23/3 87/22/3 93/28/3 
f 93/28/3 91/29/3 85/23/3 
f 87/22/3 88/21/3 94/27/3 
f 94/27/3 93/28/3 87/22/3 
f 88/21/3 89/20/3 95/26/3 
f 95/26/3 94/27/3 88/21/3 
f 89/20/3 90/19/3 96/25/3 
f 96/25/3 95/26/3 89/20/3 
f 92/30/3 91/29/3 38/35/3 
f 38/35/3 37/36/3 92/30/3 
f 91/29/3 93/28/3 41/34/3 
f 41/34/3 38/35/3 91/29/3 
f 93/28/3 94/27/3 43/33/3 
f 43/33/3 41/34/3 93/28/3 
f 94/27/3 95/26/3 45/32/3 
f 45/32/3 43/33/3 94/27/3 
f 95/26/3 96/25/3 47/31/3 
f 47/31/3 45/32/3 95/26/3 
f 12/12/4 11/10/4 97/9/4 
f 97/9/4 78/11/4 12/12/4 
f 11/10/4 18/8/4 98/7/4 
f 98/7/4 97/9/4 11/10/4 
f 18/8/4 24/6/4 99/5/4 
f 99/5/4 98/7/4 18/8/4 
f 24/6/4 30/4/4 100/3/4 
f 100/3/4 99/5/4 24/6/4 
f 30/4/4 36/1/4 101/2/4 
f 101/2/4 100/3/4 30/4/4 
f 78/11/4 97/9/4 102/17/4 
f 102/17/4 84/18/4 78/11/4 
f 97/9/4 98/7/4 103/16/4 
f 103/16/4 102/17/4 97/9/4 
f 98/7/4 99/5/4 104/15/4 
f 104/15/4 103/16/4 98/7/4 
f 99/5/4 100/3/4 105/14/4 
f 105/14/4 104/15/4 99/5/4 
f 100/3/4 101/2/4 106/13/4 
f 106/13/4 105/14/4 100/3/4 
f 84/18/4 102/17/4 107/23/4 
f 107/23/4 90/24/4 84/18/4 
f 102/17/4 103/16/4 108/22/4 
f 108/22/4 107/23/4 102/17/4 
f 103/16/4 104/15/4 109/21/4 
f 109/21/4 108/22/4 103/16/4 
f 104/15/4 105/14/4 110/20/4 
f 110/20/4 109/21/4 104/15/4 
f 105/14/4 106/13/4 111/19/4 
f 111/19/4 110/20/4 105/14/4 
f 90/24/4 107/23/4 112/29/4 
f 112/29/4 96/30/4 90/24/4 
f 107/23/4 108/22/4 113/28/4 
f 113/28/4 112/29/4 107/23/4 
f 108/22/4 109/21/4 114/27/4 
f 114/27/4 113/28/4 108/22/4 
f 109/21/4 110/20/4 115/26/4 
f 115/26/4 114/27/4 109/21/4 
f 110/20/4 111/19/4 116/25/4 
f 116/25/4 115/26/4 110/20/4 
f 96/30/4 112/29/4 48/35/4 
f 48/35/4 47/36/4 96/30/4 
f 112/29/4 113/28/4 54/34/4 
f 54/34/4 48/35/4 112/29/4 
f 113/28/4 114/27/4 60/33/4 
f 60/33/4 54/34/4 113/28/4 
f 114/27/4 115/26/4 66/32/4 
f 66/32/4 60/33/4 114/27/4 
f 115/26/4 116/25/4 72/31/4 
f 72/31/4 66/32/4 115/26/4 
f 36/12/5 35/10/5 117/9/5 
f 117/9/5 101/11/5 36/12/5 
f 35/10/5 34/8/5 118/7/5 
f 118/7/5 117/9/5 35/10/5 
f 34/8/5 33/6/5 119/5/5 
f 119/5/5 118/7/5 34/8/5 
f 33/6/5 32/4/5 120/3/5 
f 120/3/5 119/5/5 33/6/5 
f 32/4/5 31/1/5 121/2/5 
f 121/2/5 120/3/5 32/4/5 
f 101/11/5 117/9/5 122/17/5 
f 122/17/5 106/18/5 101/11/5 
f 117/9/5 118/7/5 123/16/5 
f 123/16/5 122/17/5 117/9/5 
f 118/7/5 119/5/5 124/15/5 
f 124/15/5 123/16/5 118/7/5 
f 119/5/5 120/3/5 125/14/5 
f 125/14/5 124/15/5 119/5/5 
f 120/3/5 121/2/5 126/13/5 
f 126/13/5 125/14/5 120/3/5 
f 106/18/5 122/17/5 127/23/5 
f 127/23/5 111/24/5 106/18/5 
f 122/17/5 123/16/5 128/22/5 
f 128/22/5 127/23/5 122/17/5 
f 123/16/5 124/15/5 129/21/5 
f 129/21/5 128/22/5 123/16/5 
f 124/15/5 125/14/5 130/20/5 
f 130/20/5 129/21/5 124/15/5 
f 125/14/5 126/13/5 131/19/5 
f 131/19/5 130/20/5 125/14/5 
f 111/24/5 127/23/5 132/29/5 
f 132/29/5 116/30/5 111/24/5 
f 127/23/5 128/22/5 133/28/5 
f 133/28/5 132/29/5 127/23/5 
f 128/22/5 129/21/5 134/27/5 
f 134/27/5 133/28/5 128/22/5 
f 129/21/5 130/20/5 135/26/5 
f 135/26/5 134/27/5 129/21/5 
f 130/20/5 131/19/5 136/25/5 
f 136/25/5 135/26/5 130/20/5 
f 116/30/5 132/29/5 71/35/5 
f 71/35/5 72/36/5 116/30/5 
f 132/29/5 133/28/5 70/34/5 
f 70/34/5 71/35/5 132/29/5 
f 133/28/5 134/27/5 69/33/5 
f 69/33/5 70/34/5 133/28/5 
f 134/27/5 135/26/5 67/32/5 
f 67/32/5 69/33/5 134/27/5 
f 135/26/5 136/25/5 68/31/5 
f 68/31/5 67/32/5 135/26/5 
f 31/12/6 25/10/6 137/9/6 
f 137/9/6 121/11/6 31/12/6 
f 25/10/6 19/8/6 138/7/6 
f 138/7/6 137/9/6 25/10/6 
f 19/8/6 13/6/6 139/5/6 
f 139/5/6 138/7/6 19/8/6 
f 13/6/6 2/4/6 140/3/6 
f 140/3/6 139/5/6 13/6/6 
f 2/4/6 1/1/6 74/2/6 
f 74/2/6 140/3/6 2/4/6 
f 121/11/6 137/9/6 141/17/6 
f 141/17/6 126/18/6 121/11/6 
f 137/9/6 138/7/6 142/16/6 
f 142/16/6 141/17/6 137/9/6 
f 138/7/6 139/5/6 143/15/6 
f 143/15/6 142/16/6 138/7/6 
f 139/5/6 140/3/6 144/14/6 
f 144/14/6 143/15/6 139/5/6 
f 140/3/6 74/2/6 80/13/6 
f 80/13/6 144/14/6 140/3/6 
f 126/18/6 141/17/6 145/23/6 
f 145/23/6 131/24/6 126/18/6 
f 141/17/6 142/16/6 146/22/6 
f 146/22/6 145/23/6 141/17/6 
f 142/16/6 143/15/6 147/21/6 
f 147/21/6 146/22/6 142/16/6 
f 143/15/6 144/14/6 148/20/6 
f 148/20/6 147/21/6 143/15/6 
f 144/14/6 80/13/6 86/19/6 
f 86/19/6 148/20/6 144/14/6 
f 131/24/6 145/23/6 149/29/6 
f 149/29/6 136/30/6 131/24/6 
f 145/23/6 146/22/6 150/28/6 
f 150/28/6 149/29/6 145/23/6 
f 146/22/6 147/21/6 151/27/6 
f 151/27/6 150/28/6 146/22/6 
f 147/21/6 148/20/6 152/26/6 
f 152/26/6 151/27/6 147/21/6 
f 148/20/6 86/19/6 92/25/6 
f 92/25/6 152/26/6 148/20/6 
f 136/30/6 149/29/6 62/35/6 
f 62/35/6 68/36/6 136/30/6 
f 149/29/6 150/28/6 56/34/6 
f 56/34/6 62/35/6 149/29/6 
f 150/28/6 151/27/6 50/33/6 
f 50/33/6 56/34/6 150/28/6 
f 151/27/6 152/26/6 40/32/6 
f 40/32/6 50/33/6 151/27/6 
f 152/26/6 92/25/6 37/31/6 
f 37/31/6 40/32/6 152/26/6 
# 300 faces

